<svg version="1.1" xmlns="http://www.w3.org/2000/svg" xmlns:xlink="http://www.w3.org/1999/xlink" width="1024" height="1024" viewBox="-39.1458 6.1104 0.627 0.5021"><g transform="scale(0.0001,-0.0001)"><path class="C2305407" d="M-386014 -61766l127 -245l174 -69l192 -255l324 105l-86 -161l-175 -63l-86 -179l-251 -163l92 -133l36 -115l-153 -148l50 -282l145 -82l-105 -193l-194 -33l-94 -135l299 -124l272 19l154 93l105 -128l-366 -318l-150 -326l-426 -446l25 -174l-121 20l-671 -348l-133 88l-325 -145l39 -152l-196 -62l-247 -205l-153 116l-635 35l-224 157l-333 39l-93 124l-377 383l-1044 814l-328 -61l-275 -149l-204 119l-33 126l157 157l-84 158l86 90l353 229l135 151l213 -211l212 93l489 1l90 -47l-37 256l100 147l383 6l204 294l319 -191l431 331l203 238l-98 202l8 189l285 1112l157 59l187 -82l206 125l122 -128l228 139l-211 -414l-22 -280l91 -214l455 -96l246 262l379 155l157 -75Z" centroide="-387834.10122912074,-63893.25080470528"></path></g></svg>